<svg width="333" height="30" fill="none" xmlns="http://www.w3.org/2000/svg"><path d="M9.083 29V16.229h4.128l.617-4.978H9.082V8.077c0-1.446.382-2.419 2.378-2.419H14V1.192C13.556 1.128 12.053 1 10.303 1 6.643 1 4.14 3.316 4.14 7.578v3.673H0v4.978h4.14V29h4.943zM73 6.721c-1.03.462-2.136.775-3.298.915a5.822 5.822 0 002.525-3.211 11.503 11.503 0 01-3.65 1.41A5.698 5.698 0 0064.385 4c-3.173 0-5.745 2.601-5.745 5.807 0 .455.051.899.15 1.324-4.774-.243-9.006-2.555-11.84-6.07a5.814 5.814 0 00-.776 2.92 5.823 5.823 0 002.554 4.834 5.696 5.696 0 01-2.601-.729v.072c0 2.814 1.98 5.162 4.607 5.696a5.76 5.76 0 01-1.514.204c-.37 0-.73-.038-1.081-.108.731 2.309 2.852 3.988 5.364 4.034a11.443 11.443 0 01-7.133 2.482c-.464 0-.92-.028-1.37-.08A16.105 16.105 0 0053.804 27c10.567 0 16.342-8.85 16.342-16.526l-.019-.752a11.542 11.542 0 002.873-3z" fill="#323642"/><path fill-rule="evenodd" clip-rule="evenodd" d="M126.048 13.56c.101.618.202 1.234.202 1.851 0 3.187-.911 5.757-2.935 7.608-1.922 1.953-4.351 2.981-7.488 2.981-3.035 0-5.565-1.028-7.69-3.187S105 18.084 105 15c0-3.084 1.012-5.654 3.137-7.813S112.792 4 115.827 4c2.834 0 5.262.925 7.286 2.878l-2.934 2.879c-1.114-1.13-2.631-1.645-4.352-1.645-1.821 0-3.44.72-4.756 2.056-1.315 1.44-2.023 3.084-2.023 4.935 0 1.953.708 3.598 2.023 4.934 1.316 1.337 2.935 2.056 4.756 2.056 1.518 0 2.834-.41 4.048-1.233 1.214-.925 1.923-2.056 2.125-3.495h-6.173V13.56h10.221zM139 16.749h-3.036v3.187h-3.137v-3.187h-3.137V13.56h3.137v-3.187h3.137v3.187H139v3.187zM196.271 1h-24.024c-1.15 0-2.247.781-2.247 1.897v24.149c0 1.115 1.097 1.954 2.247 1.954h24.024c1.151 0 1.729-.839 1.729-1.954V2.896C198 1.782 197.422 1 196.271 1z" fill="#323642"/><path fill-rule="evenodd" clip-rule="evenodd" d="M178.273 24.545h-3.818V11.818h3.818v12.727zM176.581 9.91h-.029c-1.428 0-2.354-.928-2.354-2.15 0-1.248.953-2.174 2.41-2.174 1.457 0 2.353.913 2.381 2.161 0 1.223-.924 2.163-2.408 2.163zm17.601 14.636h-4.455v-6.88c0-1.712-.578-2.88-2.117-2.88-1.178 0-1.883.788-2.19 1.548-.114.272-.147.652-.147 1.031v7.181h-4.208s.056-11.454 0-12.727h4.208v1.732c.636-.867 1.659-2.104 3.921-2.104 2.802 0 4.988 1.818 4.988 5.73v7.37zm-8.887-10.954l.028-.04v.04h-.028z" fill="#fff"/><path d="M244.657.01c8.554-.192 15.562 6.794 15.336 15.424-.206 7.868-6.662 14.651-15.172 14.565-8.108-.081-14.777-6.651-14.818-15 .05-8.336 6.681-14.808 14.654-14.989z" fill="#323642"/><path fill-rule="evenodd" clip-rule="evenodd" d="M255.57 16.834c.795-.589 1.277-1.353 1.181-2.382-.095-1.01-.605-1.76-1.529-2.17-1-.441-1.957-.317-2.815.384-.098.08-.158.083-.258.018-1.591-1.05-3.345-1.637-5.235-1.829l-.364-.038-.302-.031.746-2.323.469-1.46.093.013c.057.008.108.016.159.027l.811.175c.694.151 1.389.302 2.085.444.199.04.298.11.354.32a2.017 2.017 0 002.252 1.465c1.371-.222 2.116-1.7 1.451-2.883-.532-.946-2.184-1.512-3.248-.274-.104.122-.193.15-.348.117-.913-.2-1.828-.395-2.742-.59a685.32 685.32 0 01-1.022-.217c-.522-.112-.765.03-.926.541l-.453 1.436c-.302.958-.605 1.917-.906 2.876-.039.124-.072.215-.239.214-.847-.006-1.681.114-2.509.289-1.484.314-2.865.875-4.12 1.731-.115.078-.185.047-.29-.002a14.99 14.99 0 01-.348-.169c-.311-.154-.623-.31-.953-.396-1.565-.415-3.423.857-3.103 2.947.125.822.614 1.417 1.287 1.868.111.074.135.14.115.262-.188 1.13-.071 2.228.386 3.283.649 1.5 1.765 2.585 3.121 3.44 1.548.978 3.265 1.473 5.065 1.7 1.575.196 3.14.121 4.687-.227 2.226-.503 4.209-1.458 5.735-3.209 1.21-1.388 1.746-3.002 1.497-4.844-.034-.245.025-.364.216-.506zm-5.294.077c.003.831-.743 1.575-1.582 1.576-.873 0-1.587-.734-1.588-1.634 0-.824.735-1.546 1.579-1.549.87-.002 1.587.722 1.591 1.607zm-1.207 4.59c.182-.21.135-.461-.032-.627-.233-.23-.533-.295-.766-.162-.053.03-.102.065-.152.099-.04.027-.079.054-.12.079-1.607.977-3.287 1.129-5.027.405a5.82 5.82 0 01-.769-.414c-.084-.05-.167-.101-.252-.15-.249-.146-.564-.095-.803.147-.158.16-.178.432-.02.656.089.126.21.24.337.328 1.088.764 2.311 1.083 3.726 1.099l.155-.01c.144-.01.323-.022.502-.039.879-.08 1.718-.312 2.477-.768.277-.169.53-.398.744-.643zm-5.977-4.594c.004.804-.752 1.578-1.541 1.58-.894.001-1.637-.718-1.64-1.588-.002-.86.726-1.594 1.581-1.594.865 0 1.597.73 1.6 1.602z" fill="#fff"/><path fill-rule="evenodd" clip-rule="evenodd" d="M332.429 7.195A6.193 6.193 0 00326.237 1h-29.046A6.193 6.193 0 00291 7.195v16.61A6.193 6.193 0 00297.191 30h29.046a6.193 6.193 0 006.192-6.195V7.195z" fill="#323642"/><path fill-rule="evenodd" clip-rule="evenodd" d="M307.571 23.602V8l11.832 7.801-11.832 7.801z" fill="#fff"/></svg>