<svg width="170" height="31" fill="none" xmlns="http://www.w3.org/2000/svg"><path d="M29.5 15.501c0-8.112-6.485-14.7-14.5-14.7S.5 7.39.5 15.501c0 8.112 6.485 14.7 14.5 14.7s14.5-6.588 14.5-14.7z" fill="#3B5998" fill-opacity=".01" stroke="#fff"/><g filter="url(#filter0_d_0_23)"><path fill-rule="evenodd" clip-rule="evenodd" d="M19.07 13.134h-2.92v-2.367c0-.691.239-1.182.584-1.182h2.336v-2.96l-2.436.007c-3.242 0-3.989 2.093-3.989 3.544v2.958H10.31v2.96h2.336c0 4.018-.03 8.281-.03 8.281h3.535v-8.282h2.337l.584-2.959z" fill="#fff"/></g><path d="M76.2 15.501c0-8.118-6.581-14.7-14.7-14.7-8.118 0-14.7 6.582-14.7 14.7 0 8.119 6.582 14.7 14.7 14.7 8.119 0 14.7-6.581 14.7-14.7z" fill="#39C" fill-opacity=".01" stroke="#fff"/><g filter="url(#filter1_d_0_23)"><path fill-rule="evenodd" clip-rule="evenodd" d="M65.54 20.24v-4.643c0-1.166-.28-1.962-1.336-1.962-.805 0-1.356.536-1.567 1.055-.077.185-.096.444-.096.703v4.847h-3.033s.038-8.267 0-9.08h3.033v1.63l-.019.03h.02v-.03c.387-.59 1.387-1.646 2.935-1.646 1.918 0 3.119 1.454 3.119 4.12v4.976h-3.057zm-10.585-9.08h3.057v9.08h-3.057v-9.08zM56.5 9.65a1.512 1.512 0 110-3.023 1.512 1.512 0 010 3.023z" fill="#fff"/></g><g clip-path="url(#clip0_0_23)"><path d="M122.5 16c0-8.007-6.492-14.499-14.5-14.499s-14.5 6.492-14.5 14.5 6.492 14.5 14.5 14.5 14.5-6.492 14.5-14.5z" fill="#D14333" fill-opacity=".01" stroke="#fff"/><g filter="url(#filter2_d_0_23)"><path fill-rule="evenodd" clip-rule="evenodd" d="M116.743 12.5h-2.366v2.334h-1.182v-2.333h-2.366v-1.167h2.366V9.001h1.182v2.333h2.366v1.167zm-8.423-2.406c.127.076.271.186.43.331a3.632 3.632 0 01.821 1.296c.089.284.134.615.134.994-.012.694-.172 1.249-.48 1.665a5.275 5.275 0 01-.481.558c-.187.17-.386.344-.598.521a2.65 2.65 0 00-.335.406.881.881 0 00-.182.549.7.7 0 00.186.5c.106.128.208.238.307.333l.688.54a6.72 6.72 0 011.125 1.106c.304.41.462.946.474 1.608 0 .94-.434 1.773-1.301 2.498-.9.75-2.199 1.14-3.896 1.164-1.42-.013-2.481-.303-3.182-.869-.707-.528-1.06-1.162-1.06-1.899 0-.358.115-.758.345-1.199.223-.44.627-.827 1.212-1.16a6.525 6.525 0 012.07-.719c.715-.1 1.31-.157 1.784-.17a4.002 4.002 0 01-.391-.59 1.298 1.298 0 01-.201-.732c0-.171.026-.314.076-.428.045-.12.086-.232.125-.333a6.048 6.048 0 01-.652.038c-1.08-.013-1.903-.337-2.469-.974-.593-.594-.888-1.284-.888-2.072 0-.953.419-1.816 1.259-2.592.576-.454 1.175-.751 1.797-.89a9.168 9.168 0 011.73-.18h4.056l-1.252.7h-1.251zm-2.636 8.62c-.42.057-.849.149-1.288.274a13.71 13.71 0 00-.436.172 2.64 2.64 0 00-.572.35 2.065 2.065 0 00-.474.586c-.149.246-.223.542-.223.889 0 .681.322 1.244.969 1.684.613.442 1.453.669 2.518.683.956-.014 1.685-.216 2.189-.607.491-.384.737-.88.737-1.486 0-.49-.169-.92-.504-1.287-.356-.346-.911-.772-1.666-1.277a4.907 4.907 0 00-.456-.019c-.103-.013-.368 0-.794.038zm1.688-7.416a2.607 2.607 0 00-.757-.91 2.003 2.003 0 00-1.103-.35 1.81 1.81 0 00-1.371.636 2.314 2.314 0 00-.441 1.44c0 .7.215 1.43.644 2.19.208.353.476.653.805.9.328.246.704.37 1.127.37.534-.02.978-.202 1.334-.55.172-.247.282-.499.331-.759.03-.258.045-.476.045-.653 0-.766-.205-1.537-.614-2.315z" fill="#fff"/></g></g><g clip-path="url(#clip1_0_23)"><path d="M169.5 16c0-8.007-6.492-14.499-14.5-14.499s-14.5 6.492-14.5 14.5 6.492 14.5 14.5 14.5 14.5-6.492 14.5-14.5z" fill="#39C" fill-opacity=".01" stroke="#fff"/><g filter="url(#filter3_d_0_23)"><path fill-rule="evenodd" clip-rule="evenodd" d="M164.322 10.662a7.28 7.28 0 01-2.063.557 3.558 3.558 0 001.579-1.954c-.694.404-1.463.7-2.281.857a3.615 3.615 0 00-2.623-1.116c-1.984 0-3.593 1.581-3.593 3.531 0 .277.032.547.093.806a10.261 10.261 0 01-7.405-3.69 3.472 3.472 0 00-.486 1.775c0 1.225.634 2.306 1.598 2.94a3.637 3.637 0 01-1.628-.442v.044c0 1.71 1.239 3.139 2.882 3.463a3.611 3.611 0 01-1.622.06 3.59 3.59 0 003.356 2.453 7.288 7.288 0 01-4.462 1.512c-.29 0-.576-.017-.857-.05a10.3 10.3 0 005.507 1.587c6.609 0 10.223-5.381 10.223-10.048 0-.153-.004-.305-.011-.457a7.234 7.234 0 001.793-1.828z" fill="#fff"/></g></g><defs><filter id="filter0_d_0_23" x="10.309" y="6.626" width="10.761" height="20.45" filterUnits="userSpaceOnUse" color-interpolation-filters="sRGB"><feFlood flood-opacity="0" result="BackgroundImageFix"/><feColorMatrix in="SourceAlpha" values="0 0 0 0 0 0 0 0 0 0 0 0 0 0 0 0 0 0 127 0" result="hardAlpha"/><feOffset dx="1" dy="1.7"/><feGaussianBlur stdDeviation=".5"/><feColorMatrix values="0 0 0 0 0 0 0 0 0 0 0 0 0 0 0 0 0 0 0.25 0"/><feBlend in2="BackgroundImageFix" result="effect1_dropShadow_0_23"/><feBlend in="SourceGraphic" in2="effect1_dropShadow_0_23" result="shape"/></filter><filter id="filter1_d_0_23" x="53.955" y="6.325" width="17.641" height="17.615" filterUnits="userSpaceOnUse" color-interpolation-filters="sRGB"><feFlood flood-opacity="0" result="BackgroundImageFix"/><feColorMatrix in="SourceAlpha" values="0 0 0 0 0 0 0 0 0 0 0 0 0 0 0 0 0 0 127 0" result="hardAlpha"/><feOffset dx="1" dy="1.7"/><feGaussianBlur stdDeviation="1"/><feColorMatrix values="0 0 0 0 0 0 0 0 0 0 0 0 0 0 0 0 0 0 0.4 0"/><feBlend in2="BackgroundImageFix" result="effect1_dropShadow_0_23"/><feBlend in="SourceGraphic" in2="effect1_dropShadow_0_23" result="shape"/></filter><filter id="filter2_d_0_23" x="99.97" y="8.701" width="19.773" height="19.162" filterUnits="userSpaceOnUse" color-interpolation-filters="sRGB"><feFlood flood-opacity="0" result="BackgroundImageFix"/><feColorMatrix in="SourceAlpha" values="0 0 0 0 0 0 0 0 0 0 0 0 0 0 0 0 0 0 127 0" result="hardAlpha"/><feOffset dx="1" dy="1.7"/><feGaussianBlur stdDeviation="1"/><feColorMatrix values="0 0 0 0 0 0 0 0 0 0 0 0 0 0 0 0 0 0 0.34 0"/><feBlend in2="BackgroundImageFix" result="effect1_dropShadow_0_23"/><feBlend in="SourceGraphic" in2="effect1_dropShadow_0_23" result="shape"/></filter><filter id="filter3_d_0_23" x="146.31" y="8.906" width="19.512" height="15.989" filterUnits="userSpaceOnUse" color-interpolation-filters="sRGB"><feFlood flood-opacity="0" result="BackgroundImageFix"/><feColorMatrix in="SourceAlpha" values="0 0 0 0 0 0 0 0 0 0 0 0 0 0 0 0 0 0 127 0" result="hardAlpha"/><feOffset dx=".5" dy=".9"/><feGaussianBlur stdDeviation=".5"/><feColorMatrix values="0 0 0 0 0 0 0 0 0 0 0 0 0 0 0 0 0 0 0.34 0"/><feBlend in2="BackgroundImageFix" result="effect1_dropShadow_0_23"/><feBlend in="SourceGraphic" in2="effect1_dropShadow_0_23" result="shape"/></filter><clipPath id="clip0_0_23"><path fill="#fff" transform="translate(93 1)" d="M0 0h30v30H0z"/></clipPath><clipPath id="clip1_0_23"><path fill="#fff" transform="translate(140 1)" d="M0 0h30v30H0z"/></clipPath></defs></svg>