<svg width="170" height="31" viewBox="0 0 170 31" fill="none" xmlns="http://www.w3.org/2000/svg">
<path d="M29.5001 15.5013C29.5001 7.38887 23.0147 0.801136 15.0001 0.801136C6.98531 0.801136 0.500084 7.38888 0.500084 15.5013C0.500084 23.6131 6.98529 30.2017 15.0001 30.2017C23.0147 30.2017 29.5001 23.6131 29.5001 15.5013Z" fill="#3B5998" fill-opacity="0.01" stroke="white"/>
<g filter="url(#filter0_d_0_23)">
<path fill-rule="evenodd" clip-rule="evenodd" d="M19.0705 13.1344H16.1499V10.7674C16.1499 10.0757 16.3885 9.58456 16.7342 9.58456C17.0788 9.58456 19.0705 9.58456 19.0705 9.58456V6.62588L16.634 6.63186C13.3916 6.63186 12.6454 8.72528 12.6454 10.1758V13.1344H10.3092V16.0931H12.6454C12.6454 20.1122 12.6146 24.3755 12.6146 24.3755H16.1499C16.1499 24.3755 16.1499 20.0643 16.1499 16.0931H18.4865L19.0705 13.1344Z" fill="white"/>
</g>
<path d="M76.2001 15.5011C76.2001 7.38257 69.6188 0.801339 61.5001 0.801339C53.3815 0.801339 46.8001 7.38257 46.8001 15.5011C46.8001 23.6198 53.3815 30.2019 61.5001 30.2019C69.6189 30.2019 76.2001 23.6198 76.2001 15.5011Z" fill="#3399CC" fill-opacity="0.01" stroke="white"/>
<g filter="url(#filter1_d_0_23)">
<path fill-rule="evenodd" clip-rule="evenodd" d="M65.5391 20.2402V15.5968C65.5391 14.4305 65.2591 13.6346 64.204 13.6346C63.3989 13.6346 62.8482 14.1713 62.6371 14.6896C62.5601 14.8753 62.5415 15.1342 62.5415 15.3934V20.2402H59.5078C59.5078 20.2402 59.5458 11.9734 59.5078 11.1601H62.5415V12.7905C62.5354 12.8007 62.5283 12.8105 62.522 12.8203H62.5415V12.7905C62.9288 12.1997 63.9289 11.1441 65.4766 11.1441C67.3946 11.1441 68.596 12.5977 68.596 15.2644V20.2402H65.5391ZM54.9552 11.1601H58.0124V20.2402H54.9552V11.1601ZM56.4998 9.65007C55.665 9.65007 54.9883 8.97336 54.9883 8.13807C54.9883 7.30317 55.665 6.62547 56.4998 6.62547C57.3345 6.62547 58.0113 7.30317 58.0113 8.13807C58.0113 8.97336 57.3345 9.65007 56.4998 9.65007Z" fill="white"/>
</g>
<g clip-path="url(#clip0_0_23)">
<path d="M122.5 16.0008C122.5 7.99292 116.008 1.5014 108 1.5014C99.992 1.5014 93.5001 7.99292 93.5001 16.0008C93.5001 24.0087 99.9919 30.5019 108 30.5019C116.008 30.5019 122.5 24.0087 122.5 16.0008Z" fill="#D14333" fill-opacity="0.01" stroke="white"/>
<g filter="url(#filter2_d_0_23)">
<path fill-rule="evenodd" clip-rule="evenodd" d="M116.743 12.5009H114.377V14.8344H113.195V12.5009H110.829V11.3344H113.195V9.00133H114.377V11.3344H116.743V12.5009ZM108.32 10.0941C108.447 10.1696 108.591 10.2798 108.75 10.4252C108.903 10.576 109.052 10.7626 109.199 10.9835C109.339 11.191 109.463 11.4377 109.571 11.7209C109.66 12.0047 109.705 12.3363 109.705 12.7146C109.693 13.4089 109.533 13.9637 109.225 14.3796C109.074 14.5819 108.913 14.7679 108.744 14.9384C108.557 15.108 108.358 15.2822 108.146 15.459C108.025 15.5788 107.913 15.7132 107.811 15.8648C107.69 16.0236 107.629 16.2066 107.629 16.4137C107.629 16.6162 107.691 16.7838 107.815 16.9148C107.921 17.0421 108.023 17.1521 108.122 17.2466L108.81 17.7863C109.238 18.1204 109.613 18.4893 109.935 18.893C110.239 19.3033 110.397 19.8386 110.409 20.5015C110.409 21.4408 109.975 22.2741 109.108 22.999C108.208 23.7494 106.909 24.1384 105.212 24.1628C103.792 24.1498 102.731 23.8604 102.03 23.2944C101.323 22.7659 100.97 22.1325 100.97 21.3955C100.97 21.0366 101.085 20.6375 101.315 20.1963C101.538 19.7557 101.942 19.3686 102.527 19.0352C103.184 18.6761 103.874 18.438 104.597 18.3174C105.312 18.2161 105.907 18.1604 106.381 18.1468C106.234 17.9638 106.104 17.7665 105.99 17.5578C105.856 17.3551 105.789 17.1112 105.789 16.8249C105.789 16.6536 105.815 16.511 105.865 16.3969C105.91 16.2765 105.951 16.1646 105.99 16.0642C105.759 16.0893 105.542 16.1019 105.338 16.1019C104.258 16.0893 103.435 15.7648 102.869 15.128C102.276 14.5342 101.981 13.8437 101.981 13.0557C101.981 12.1034 102.4 11.2398 103.24 10.4636C103.816 10.0104 104.415 9.71258 105.037 9.57357C105.652 9.45493 106.229 9.3944 106.767 9.3944H110.823L109.571 10.0941H108.32ZM105.684 18.714C105.264 18.7708 104.835 18.8627 104.396 18.9883C104.292 19.0266 104.147 19.083 103.96 19.1595C103.772 19.2408 103.582 19.3576 103.388 19.5092C103.201 19.6668 103.043 19.8629 102.914 20.096C102.765 20.3417 102.691 20.6381 102.691 20.9848C102.691 21.6661 103.013 22.229 103.66 22.669C104.273 23.111 105.113 23.3379 106.178 23.3515C107.134 23.3379 107.863 23.1364 108.367 22.7451C108.858 22.3606 109.104 21.8649 109.104 21.2595C109.104 20.7681 108.935 20.3393 108.6 19.9724C108.244 19.6258 107.689 19.1996 106.934 18.6953C106.804 18.6831 106.653 18.6761 106.478 18.6761C106.375 18.6631 106.11 18.6761 105.684 18.714ZM107.372 11.2975C107.18 10.925 106.928 10.622 106.615 10.3877C106.295 10.1666 105.927 10.0497 105.512 10.0373C104.962 10.0497 104.505 10.2616 104.141 10.6735C103.834 11.1025 103.687 11.5825 103.7 12.1136C103.7 12.8145 103.915 13.5449 104.344 14.3037C104.552 14.6574 104.82 14.9574 105.149 15.2045C105.477 15.45 105.853 15.5734 106.276 15.5734C106.81 15.5544 107.254 15.3719 107.61 15.0237C107.782 14.7771 107.892 14.5252 107.941 14.2653C107.971 14.0069 107.986 13.789 107.986 13.612C107.986 12.8464 107.781 12.0747 107.372 11.2975Z" fill="white"/>
</g>
</g>
<g clip-path="url(#clip1_0_23)">
<path d="M169.5 16.0008C169.5 7.99292 163.008 1.5014 155 1.5014C146.992 1.5014 140.5 7.99293 140.5 16.0008C140.5 24.0087 146.992 30.5019 155 30.5019C163.008 30.5019 169.5 24.0087 169.5 16.0008Z" fill="#3399CC" fill-opacity="0.01" stroke="white"/>
<g filter="url(#filter3_d_0_23)">
<path fill-rule="evenodd" clip-rule="evenodd" d="M164.322 10.6619C163.678 10.9434 162.985 11.1329 162.259 11.2188C163 10.7814 163.57 10.0891 163.838 9.26498C163.144 9.66924 162.375 9.96425 161.557 10.1218C160.901 9.43455 159.968 9.00612 158.934 9.00612C156.95 9.00612 155.341 10.587 155.341 12.537C155.341 12.8145 155.373 13.0843 155.434 13.3428C152.448 13.195 149.801 11.7892 148.029 9.65267C147.72 10.1748 147.543 10.7806 147.543 11.4285C147.543 12.6531 148.177 13.7343 149.141 14.3682C148.552 14.3492 147.998 14.1909 147.513 13.9262C147.513 13.9414 147.513 13.9554 147.513 13.9701C147.513 15.6809 148.752 17.1088 150.395 17.4329C150.094 17.5146 149.776 17.557 149.449 17.557C149.217 17.557 148.992 17.535 148.773 17.4935C149.23 18.8968 150.557 19.9175 152.129 19.9464C150.899 20.8938 149.35 21.4578 147.667 21.4578C147.377 21.4578 147.091 21.4414 146.81 21.4087C148.4 22.4103 150.288 22.9954 152.317 22.9954C158.926 22.9954 162.54 17.6137 162.54 12.9473C162.54 12.7935 162.536 12.6417 162.529 12.4901C163.231 11.9918 163.84 11.3708 164.322 10.6619Z" fill="white"/>
</g>
</g>
<defs>
<filter id="filter0_d_0_23" x="10.3092" y="6.62598" width="10.7612" height="20.4495" filterUnits="userSpaceOnUse" color-interpolation-filters="sRGB">
<feFlood flood-opacity="0" result="BackgroundImageFix"/>
<feColorMatrix in="SourceAlpha" type="matrix" values="0 0 0 0 0 0 0 0 0 0 0 0 0 0 0 0 0 0 127 0" result="hardAlpha"/>
<feOffset dx="1" dy="1.7"/>
<feGaussianBlur stdDeviation="0.5"/>
<feColorMatrix type="matrix" values="0 0 0 0 0 0 0 0 0 0 0 0 0 0 0 0 0 0 0.25 0"/>
<feBlend mode="normal" in2="BackgroundImageFix" result="effect1_dropShadow_0_23"/>
<feBlend mode="normal" in="SourceGraphic" in2="effect1_dropShadow_0_23" result="shape"/>
</filter>
<filter id="filter1_d_0_23" x="53.9552" y="6.32549" width="17.6409" height="17.6147" filterUnits="userSpaceOnUse" color-interpolation-filters="sRGB">
<feFlood flood-opacity="0" result="BackgroundImageFix"/>
<feColorMatrix in="SourceAlpha" type="matrix" values="0 0 0 0 0 0 0 0 0 0 0 0 0 0 0 0 0 0 127 0" result="hardAlpha"/>
<feOffset dx="1" dy="1.7"/>
<feGaussianBlur stdDeviation="1"/>
<feColorMatrix type="matrix" values="0 0 0 0 0 0 0 0 0 0 0 0 0 0 0 0 0 0 0.4 0"/>
<feBlend mode="normal" in2="BackgroundImageFix" result="effect1_dropShadow_0_23"/>
<feBlend mode="normal" in="SourceGraphic" in2="effect1_dropShadow_0_23" result="shape"/>
</filter>
<filter id="filter2_d_0_23" x="99.9696" y="8.70122" width="19.7732" height="19.1616" filterUnits="userSpaceOnUse" color-interpolation-filters="sRGB">
<feFlood flood-opacity="0" result="BackgroundImageFix"/>
<feColorMatrix in="SourceAlpha" type="matrix" values="0 0 0 0 0 0 0 0 0 0 0 0 0 0 0 0 0 0 127 0" result="hardAlpha"/>
<feOffset dx="1" dy="1.7"/>
<feGaussianBlur stdDeviation="1"/>
<feColorMatrix type="matrix" values="0 0 0 0 0 0 0 0 0 0 0 0 0 0 0 0 0 0 0.34 0"/>
<feBlend mode="normal" in2="BackgroundImageFix" result="effect1_dropShadow_0_23"/>
<feBlend mode="normal" in="SourceGraphic" in2="effect1_dropShadow_0_23" result="shape"/>
</filter>
<filter id="filter3_d_0_23" x="146.31" y="8.9061" width="19.5123" height="15.9893" filterUnits="userSpaceOnUse" color-interpolation-filters="sRGB">
<feFlood flood-opacity="0" result="BackgroundImageFix"/>
<feColorMatrix in="SourceAlpha" type="matrix" values="0 0 0 0 0 0 0 0 0 0 0 0 0 0 0 0 0 0 127 0" result="hardAlpha"/>
<feOffset dx="0.5" dy="0.9"/>
<feGaussianBlur stdDeviation="0.5"/>
<feColorMatrix type="matrix" values="0 0 0 0 0 0 0 0 0 0 0 0 0 0 0 0 0 0 0.34 0"/>
<feBlend mode="normal" in2="BackgroundImageFix" result="effect1_dropShadow_0_23"/>
<feBlend mode="normal" in="SourceGraphic" in2="effect1_dropShadow_0_23" result="shape"/>
</filter>
<clipPath id="clip0_0_23">
<rect width="30" height="30" fill="white" transform="translate(93 1)"/>
</clipPath>
<clipPath id="clip1_0_23">
<rect width="30" height="30" fill="white" transform="translate(140 1)"/>
</clipPath>
</defs>
</svg>
