<svg width="333" height="30" viewBox="0 0 333 30" fill="none" xmlns="http://www.w3.org/2000/svg">
    <path d="M9.08275 29V16.2285H13.2113L13.8275 11.2505H9.08275V8.07678C9.08275 6.63071 9.46479 5.65813 11.4613 5.65813H14V1.19196C13.5563 1.12797 12.0528 1 10.3028 1C6.64261 1 4.14084 3.31627 4.14084 7.5777V11.2505H0V16.2285H4.14084V29H9.08275Z" fill="#323642"/>
    <path d="M73 6.72126C71.9694 7.18305 70.8637 7.49623 69.7019 7.63604C70.8881 6.91766 71.7962 5.77821 72.2266 4.42463C71.1138 5.0899 69.8855 5.57297 68.5768 5.83484C67.5287 4.70422 66.038 4 64.3845 4C61.2124 4 58.6404 6.60097 58.6404 9.80706C58.6404 10.2618 58.6911 10.7059 58.7891 11.1306C54.016 10.8881 49.7836 8.57558 46.9509 5.06159C46.4557 5.91798 46.174 6.91586 46.174 7.98105C46.174 9.99638 47.1888 11.7746 48.7285 12.8149C47.7872 12.7831 46.9019 12.5212 46.1268 12.086V12.1585C46.1268 14.9718 48.1074 17.3197 50.7337 17.8541C50.2525 17.985 49.7451 18.0576 49.2202 18.0576C48.8493 18.0576 48.4906 18.0204 48.1389 17.9497C48.8702 20.2587 50.9909 21.9378 53.5034 21.9838C51.5385 23.5409 49.061 24.4663 46.37 24.4663C45.9063 24.4663 45.4496 24.4379 45 24.3866C47.5423 26.0375 50.5605 27 53.8044 27C64.3706 27 70.1463 18.1496 70.1463 10.4741L70.1271 9.72216C71.2556 8.90819 72.2319 7.88551 73 6.72126Z" fill="#323642"/>
    <path fill-rule="evenodd" clip-rule="evenodd" d="M126.048 13.5607C126.149 14.1776 126.25 14.7944 126.25 15.4112C126.25 18.5981 125.339 21.1682 123.315 23.0187C121.393 24.972 118.964 26 115.827 26C112.792 26 110.262 24.972 108.137 22.8131C106.012 20.6542 105 18.0841 105 15C105 11.9159 106.012 9.34579 108.137 7.18692C110.262 5.02804 112.792 4 115.827 4C118.661 4 121.089 4.92523 123.113 6.8785L120.179 9.75701C119.065 8.62617 117.548 8.11215 115.827 8.11215C114.006 8.11215 112.387 8.83178 111.071 10.1682C109.756 11.6075 109.048 13.2523 109.048 15.1028C109.048 17.0561 109.756 18.7009 111.071 20.0374C112.387 21.3738 114.006 22.0935 115.827 22.0935C117.345 22.0935 118.661 21.6822 119.875 20.8598C121.089 19.9346 121.798 18.8037 122 17.3645H115.827V13.5607H126.048ZM139 16.7477H135.964V19.9346H132.827V16.7477H129.69V13.5607H132.827V10.3738H135.964V13.5607H139V16.7477Z" fill="#323642"/>
    <path fill-rule="evenodd" clip-rule="evenodd" d="M196.271 1H172.247C171.097 1 170 1.78115 170 2.89681V27.0458C170 28.1614 171.097 29 172.247 29H196.271C197.422 29 198 28.1611 198 27.0458V2.89681C198 1.78146 197.422 1 196.271 1Z" fill="#323642"/>
    <path fill-rule="evenodd" clip-rule="evenodd" d="M178.273 24.5454H174.455V11.8181H178.273V24.5454ZM176.581 9.90901H176.552C175.124 9.90901 174.198 8.9814 174.198 7.75861C174.198 6.51109 175.151 5.58545 176.608 5.58545C178.065 5.58545 178.961 6.49845 178.989 7.74629C178.989 8.96939 178.065 9.90901 176.581 9.90901ZM194.182 24.5454H189.727V17.6641C189.727 15.9527 189.149 14.7853 187.61 14.7853C186.432 14.7853 185.727 15.5731 185.42 16.3332C185.306 16.6051 185.273 16.9847 185.273 17.3643V24.5454H181.065C181.065 24.5454 181.121 13.0908 181.065 11.8181H185.273V13.5503C185.909 12.6834 186.932 11.4465 189.194 11.4465C191.996 11.4465 194.182 13.2644 194.182 17.1755V24.5454ZM185.295 13.5907C185.303 13.5788 185.313 13.5644 185.323 13.5507V13.5907H185.295Z" fill="white"/>
    <path d="M244.657 0.010483C253.211 -0.18217 260.219 6.80366 259.993 15.434C259.787 23.3015 253.331 30.0851 244.821 29.9992C236.713 29.9176 230.044 23.3475 230.003 14.9992C230.053 6.66307 236.684 0.190986 244.657 0.010483Z" fill="#323642"/>
    <path fill-rule="evenodd" clip-rule="evenodd" d="M255.57 16.8343C256.365 16.2451 256.847 15.4814 256.751 14.4522C256.656 13.4429 256.146 12.6923 255.222 12.2818C254.222 11.841 253.265 11.965 252.407 12.6662C252.309 12.7461 252.249 12.7495 252.149 12.6836C250.558 11.6344 248.804 11.0469 246.914 10.8551C246.794 10.8429 246.675 10.8304 246.55 10.8173L246.55 10.8172L246.248 10.7857C246.499 10.0027 246.747 9.23203 246.994 8.46338L246.994 8.46286L247.463 7.00207C247.496 7.00738 247.527 7.01189 247.556 7.01617C247.613 7.02449 247.664 7.03197 247.715 7.04286C247.985 7.10102 248.256 7.15972 248.526 7.21844L248.526 7.21844L248.526 7.21844L248.526 7.21845L248.526 7.21846C249.22 7.36912 249.915 7.51986 250.611 7.6616C250.81 7.70239 250.909 7.77182 250.965 7.98182C251.231 8.97459 252.219 9.60722 253.217 9.44668C254.588 9.22539 255.333 7.74752 254.668 6.56383C254.136 5.61792 252.484 5.05212 251.42 6.29047C251.316 6.41197 251.227 6.4406 251.072 6.40676C250.159 6.20632 249.244 6.01187 248.33 5.81737C247.989 5.74493 247.648 5.67247 247.308 5.5997C246.786 5.48775 246.543 5.63094 246.382 6.14121C246.231 6.61987 246.08 7.09842 245.929 7.57698L245.929 7.5771L245.929 7.57722C245.627 8.53538 245.324 9.49354 245.023 10.4525C244.984 10.5774 244.951 10.6677 244.784 10.6668C243.937 10.6607 243.103 10.7805 242.275 10.9558C240.791 11.2699 239.41 11.8305 238.155 12.6871C238.04 12.7652 237.97 12.7339 237.865 12.6853C237.749 12.6314 237.633 12.5739 237.517 12.5163L237.517 12.5163C237.206 12.3618 236.894 12.2068 236.564 12.1195C234.999 11.7047 233.141 12.9769 233.461 15.0674C233.586 15.8893 234.075 16.4837 234.748 16.935C234.859 17.0087 234.883 17.0755 234.863 17.197C234.675 18.3278 234.792 19.4247 235.249 20.4799C235.898 21.9804 237.014 23.0651 238.37 23.9208C239.918 24.8979 241.635 25.3926 243.435 25.6191C245.01 25.8161 246.575 25.7414 248.122 25.3926C250.348 24.8901 252.331 23.9347 253.857 22.1843C255.067 20.7958 255.603 19.1817 255.354 17.3402C255.32 17.0946 255.379 16.9757 255.57 16.8343ZM250.276 16.9107C250.279 17.742 249.533 18.4857 248.694 18.4866C247.821 18.4875 247.107 17.7533 247.106 16.8525C247.106 16.029 247.841 15.307 248.685 15.3044C249.555 15.3018 250.272 16.0255 250.276 16.9107ZM249.069 21.5013C249.251 21.2905 249.204 21.0397 249.037 20.8739C248.804 20.6431 248.504 20.5789 248.271 20.7125C248.218 20.7425 248.169 20.7766 248.119 20.8106L248.119 20.8106L248.119 20.8106C248.079 20.8376 248.04 20.8646 247.999 20.8895C246.392 21.8667 244.712 22.0186 242.972 21.2948C242.704 21.1836 242.453 21.032 242.203 20.8808L242.203 20.8808C242.119 20.8302 242.036 20.7797 241.951 20.7307C241.702 20.5849 241.387 20.6361 241.148 20.8783C240.99 21.0371 240.97 21.3104 241.128 21.5343C241.217 21.6602 241.338 21.7738 241.465 21.8624C242.553 22.626 243.776 22.9445 245.191 22.961C245.235 22.9577 245.288 22.9543 245.346 22.9504C245.49 22.9409 245.669 22.9291 245.848 22.9124C246.727 22.8317 247.566 22.6 248.325 22.1435C248.602 21.9752 248.855 21.7461 249.069 21.5013ZM243.092 16.9072C243.096 17.7108 242.34 18.4849 241.551 18.4866C240.657 18.4883 239.914 17.7689 239.911 16.8994C239.909 16.0394 240.637 15.3052 241.492 15.3052C242.357 15.3044 243.089 16.0359 243.092 16.9072Z" fill="white"/>
    <path fill-rule="evenodd" clip-rule="evenodd" d="M332.429 7.19495C332.429 3.77341 329.657 1 326.237 1H297.191C293.772 1 291 3.77341 291 7.19495V23.805C291 27.2266 293.772 30 297.191 30H326.237C329.657 30 332.429 27.2266 332.429 23.805V7.19495Z" fill="#323642"/>
    <path fill-rule="evenodd" clip-rule="evenodd" d="M307.571 23.602V8L319.403 15.801L307.571 23.602Z" fill="white"/>
</svg>
